<?xml version="1.0" encoding="UTF-8"?>
<svg width="15px" height="27px" viewBox="0 0 15 27" version="1.1" xmlns="http://www.w3.org/2000/svg" xmlns:xlink="http://www.w3.org/1999/xlink">
    <!-- Generator: Sketch 61.2 (89653) - https://sketch.com -->
    <title>Group 2</title>
    <desc>Created with Sketch.</desc>
    <g id="Symbols" stroke="none" stroke-width="1" fill="none" fill-rule="evenodd">
        <g id="nav/375/black" transform="translate(-67.000000, -17.000000)">
            <g id="Group-2" transform="translate(58.000000, 14.000000)">
                <g id="Asset-1" transform="translate(9.000000, 3.000000)" fill="#231F20" fill-rule="nonzero">
                    <path d="M1.68708075,25.1854658 L5.74378882,25.1854658 L5.74378882,21.9915839 C5.74378882,20.5250311 5.12161491,19.7225776 3.71543478,19.7225776 C2.30925466,19.7225776 1.68708075,20.5250311 1.68708075,21.9915839 L1.68708075,25.1854658 Z M7.43170807,22.8376398 L7.43170807,25.1854658 L14.0601242,25.1854658 L14.0601242,26.952205 L0,26.952205 L0,22.0318323 C0,19.5414596 1.22506211,17.8937888 3.71543478,17.8937888 C5.78487578,17.8937888 6.9302795,18.9989441 7.31180124,20.8285714 L14.0601242,16.6309938 L14.0601242,18.7197205 L7.43170807,22.8376398 Z" id="Shape"></path>
                    <polygon id="Path" points="0 9.11878882 14.0601242 9.11878882 14.0601242 0 12.372205 0 12.372205 7.35121118 7.41074534 7.35121118 7.41074534 1.2057764 5.72450311 1.2057764 5.72450311 7.35121118 1.68791925 7.35121118 1.68791925 0.201242236 0 0.201242236"></polygon>
                </g>
                <rect id="Rectangle" x="0" y="0" width="32" height="32"></rect>
            </g>
        </g>
    </g>
</svg>