<?xml version="1.0" encoding="UTF-8"?>
<svg width="82px" height="82px" viewBox="0 0 82 82" version="1.1" xmlns="http://www.w3.org/2000/svg" xmlns:xlink="http://www.w3.org/1999/xlink">
    <!-- Generator: Sketch 61.2 (89653) - https://sketch.com -->
    <title>Sale tag</title>
    <desc>Created with Sketch.</desc>
    <g id="02-Shop" stroke="none" stroke-width="1" fill="none" fill-rule="evenodd">
        <g id="Shop_1440" transform="translate(-1108.000000, -912.000000)">
            <g id="Sale-tag" transform="translate(1108.000000, 912.000000)">
                <polygon id="Rectangle-Copy-3" fill="#000000" points="0 0 82 0 82 82"></polygon>
                <path d="M42.742,30.096 C44.074,30.096 45.082,29.136 45.082,27.684 C45.082,26.364 44.23,25.704 43.138,25.212 C42.214,24.792 41.374,24.384 41.374,23.4 C41.374,22.812 41.806,22.248 42.586,22.248 C43.102,22.248 43.642,22.452 43.978,23.208 L44.626,22.8 C44.29,22.056 43.738,21.504 42.586,21.504 C41.47,21.504 40.582,22.296 40.582,23.46 C40.582,24.636 41.434,25.272 42.43,25.74 C43.45,26.22 44.254,26.628 44.254,27.72 C44.254,28.812 43.582,29.352 42.742,29.352 C41.578,29.352 41.038,28.452 40.798,27.42 L40.114,27.828 C40.318,29.064 41.338,30.096 42.742,30.096 Z M47.794,30 L48.634,27.612 L52.09,27.612 L52.93,30 L53.746,30 L50.71,21.6 L50.014,21.6 L46.978,30 L47.794,30 Z M51.838,26.868 L48.886,26.868 L50.362,22.68 L51.838,26.868 Z M60.898,30 L60.898,29.256 L56.962,29.256 L56.962,21.6 L56.17,21.6 L56.17,30 L60.898,30 Z M68.518,30 L68.518,29.256 L64.45,29.256 L64.45,25.896 L67.678,25.896 L67.678,25.152 L64.45,25.152 L64.45,22.344 L68.398,22.344 L68.398,21.6 L63.658,21.6 L63.658,30 L68.518,30 Z" id="SALE" fill="#FFFFFF" fill-rule="nonzero" transform="translate(54.316000, 25.800000) rotate(-315.000000) translate(-54.316000, -25.800000) "></path>
            </g>
        </g>
    </g>
</svg>