<?xml version="1.0" encoding="UTF-8"?>
<svg width="40px" height="41px" viewBox="0 0 40 41" version="1.1" xmlns="http://www.w3.org/2000/svg" xmlns:xlink="http://www.w3.org/1999/xlink">
    <!-- Generator: Sketch 61.2 (89653) - https://sketch.com -->
    <title>Reshoevn8r_Logotype</title>
    <desc>Created with Sketch.</desc>
    <g id="Symbols" stroke="none" stroke-width="1" fill="none" fill-rule="evenodd">
        <g id="Reshoevn8r_Logotype" fill="#000000">
            <path d="M4.60489796,37.3269759 L4.60489796,38.7790724 L8.70055659,38.7790724 L8.70055659,39.8710946 L0.01283859,39.8710946 L0.01283859,36.8305751 C0.01283859,35.291577 0.76987013,34.2738404 2.30886827,34.2738404 C3.58723562,34.2738404 4.29461967,34.9564378 4.53038961,36.0858627 L8.70055659,33.4919481 L8.70055659,34.7826345 L4.60489796,37.3269759 Z M1.05543599,38.7790724 L3.56244898,38.7790724 L3.56244898,36.8056401 C3.56244898,35.8995918 3.17773655,35.4031911 2.30886827,35.4031911 C1.44007421,35.4031911 1.05543599,35.8995918 1.05543599,36.8056401 L1.05543599,38.7790724 L1.05543599,38.7790724 Z" id="Fill-1"></path>
            <polyline id="Fill-2" points="0.01283859 23.3400371 1.05543599 23.3400371 1.05543599 27.7583673 3.54998145 27.7583673 3.54998145 23.9605937 4.59257885 23.9605937 4.59257885 27.7583673 7.6580334 27.7583673 7.6580334 23.2158813 8.70055659 23.2158813 8.70055659 28.8503896 0.01283859 28.8503896 0.01283859 23.3400371"></polyline>
            <path d="M17.8502412,35.1674212 C16.9939889,35.539666 16.547013,36.1105751 16.547013,36.9297959 C16.547013,37.8854917 17.0310946,38.4935065 17.8875696,38.4935065 C18.8183302,38.4935065 19.0666419,37.63718 19.3643785,36.4830427 C19.7119109,35.1550278 20.1090909,34.0132096 21.6233024,34.0132096 C23.5222263,34.0132096 24.390872,35.2046753 24.390872,36.8925417 C24.390872,38.5307607 23.5096846,39.7967347 21.8094249,40.1317254 L21.4122449,39.1140631 C22.5788497,38.8037848 23.348423,38.1336549 23.348423,36.8925417 C23.348423,35.837551 22.8271614,35.1053061 21.7721707,35.1053061 C20.8661224,35.1053061 20.68,35.7755844 20.3573284,37.0786642 C20.0470501,38.307384 19.6622635,39.5857514 17.9248237,39.5857514 C16.547013,39.5857514 15.5046382,38.6300557 15.5046382,36.9297959 C15.5046382,35.4156586 16.4230798,34.5592579 17.3662338,34.2117254 L17.8502412,35.1674212" id="Fill-3"></path>
            <polyline id="Fill-4" points="15.603859 22.8436364 24.291577 22.8436364 24.291577 23.9358813 20.1959184 23.9358813 20.1959184 27.7583673 24.291577 27.7583673 24.291577 28.850538 15.603859 28.850538 15.603859 27.7583673 19.1535436 27.7583673 19.1535436 23.9358813 15.603859 23.9358813 15.603859 22.8436364"></polyline>
            <path d="M19.9478293,11.4169944 C22.9263822,11.4169944 24.390872,12.9064193 24.390872,14.7928757 C24.390872,16.6794063 22.9263822,18.1686085 19.9478293,18.1686085 C16.9690538,18.1686085 15.5046382,16.6794063 15.5046382,14.7928757 C15.5046382,12.9064193 16.9690538,11.4169944 19.9478293,11.4169944 Z M19.9478293,17.0392579 C22.4051206,17.0392579 23.348423,16.071243 23.348423,14.7928757 C23.348423,13.5145083 22.4051206,12.5464935 19.9478293,12.5464935 C17.4903896,12.5464935 16.547013,13.5145083 16.547013,14.7928757 C16.547013,16.071243 17.4903896,17.0392579 19.9478293,17.0392579 L19.9478293,17.0392579 Z" id="Fill-5"></path>
            <polyline id="Fill-6" points="15.603859 0.954805195 16.6464564 0.954805195 16.6464564 5.37313544 19.1410019 5.37313544 19.1410019 1.57543599 20.1835993 1.57543599 20.1835993 5.37313544 23.2490538 5.37313544 23.2490538 0.830723562 24.291577 0.830723562 24.291577 6.4651577 15.603859 6.4651577 15.603859 0.954805195"></polyline>
            <polyline id="Fill-7" points="31.1948794 33.4546939 39.8826716 36.4953618 39.8826716 37.5379592 31.1948794 40.5787013 31.1948794 39.4492022 38.3312801 37.0166976 31.1948794 34.5841187 31.1948794 33.4546939"></polyline>
            <polyline id="Fill-8" points="31.1948794 22.930538 39.8826716 22.930538 39.8826716 24.1220037 33.1806308 27.7583673 39.8826716 27.7583673 39.8826716 28.850538 31.1948794 28.850538 31.1948794 27.6590724 37.896846 24.0227087 31.1948794 24.0227087 31.1948794 22.930538"></polyline>
            <path d="M33.4164007,12.3193321 C34.1487199,12.3193321 34.8934323,12.7288312 35.2037106,13.3121336 C35.551243,12.555102 36.3082746,12.0214471 37.3879777,12.0214471 C39.0263451,12.0214471 39.9818924,13.2748794 39.9818924,14.7145826 C39.9818924,16.1542115 39.0263451,17.4077922 37.3879777,17.4077922 C36.3082746,17.4077922 35.551243,16.8741373 35.2037106,16.1170315 C34.8934323,16.700334 34.1487199,17.1099072 33.4164007,17.1099072 C32.1257143,17.1099072 31.0956586,16.1170315 31.0956586,14.7145826 C31.0956586,13.3121336 32.1257143,12.3193321 33.4164007,12.3193321 Z M37.3879777,16.3156215 C38.3809276,16.3156215 38.9890909,15.6330983 38.9890909,14.7145826 C38.9890909,13.7962152 38.3809276,13.1136178 37.3879777,13.1136178 C36.395102,13.1136178 35.7869388,13.7962152 35.7869388,14.7145826 C35.7869388,15.6330983 36.395102,16.3156215 37.3879777,16.3156215 Z M33.4164007,16.0425974 C34.2107607,16.0425974 34.7941373,15.5336549 34.7941373,14.7145826 C34.7941373,13.895436 34.2107607,13.3866419 33.4164007,13.3866419 C32.622115,13.3866419 32.0388126,13.895436 32.0388126,14.7145826 C32.0388126,15.5336549 32.622115,16.0425974 33.4164007,16.0425974 L33.4164007,16.0425974 Z" id="Fill-9"></path>
            <path d="M35.7869388,3.85528757 L35.7869388,5.30738404 L39.8826716,5.30738404 L39.8826716,6.39940631 L31.1948794,6.39940631 L31.1948794,3.35888683 C31.1948794,1.81988868 31.9519109,0.802226345 33.4909091,0.802226345 C34.7692764,0.802226345 35.4766605,1.48474954 35.7125046,2.61424861 L39.8826716,0.0202597403 L39.8826716,1.3109462 L35.7869388,3.85528757 Z M32.2374768,5.30738404 L34.744564,5.30738404 L34.744564,3.33402597 C34.744564,2.42790353 34.3597774,1.93150278 33.4909091,1.93150278 C32.622115,1.93150278 32.2374768,2.42790353 32.2374768,3.33402597 L32.2374768,5.30738404 L32.2374768,5.30738404 Z" id="Fill-10"></path>
        </g>
    </g>
</svg>