<?xml version="1.0" encoding="UTF-8"?>
<svg class="xsvg" width="14px" height="14px" viewBox="0 0 14 14" version="1.1" xmlns="http://www.w3.org/2000/svg" xmlns:xlink="http://www.w3.org/1999/xlink">
    <!-- Generator: Sketch 54.1 (76490) - https://sketchapp.com -->
    <title>close</title>
    <desc>Created with Sketch.</desc>
    <g id="Page-1" stroke="none" stroke-width="1" fill="none" fill-rule="evenodd">
        <g id="Shop_375-Copy" transform="translate(-270.000000, -25.000000)" fill="#000000" fill-rule="nonzero">
            <g id="close" transform="translate(270.000000, 25.000000)">
                <path d="M8.23814388,7.00014593 L13.74347,1.49459026 C14.08551,1.15282787 14.08551,0.598303071 13.74347,0.256540683 C13.40143,-0.0855135608 12.847512,-0.0855135608 12.5054721,0.256540683 L7.00014592,5.76209635 L1.49452794,0.256540683 C1.15248796,-0.0855135608 0.598569969,-0.0855135608 0.256529987,0.256540683 C-0.0855099956,0.598303071 -0.0855099956,1.15282787 0.256529987,1.49459026 L5.76214796,7.00014593 L0.256529987,12.5057016 C-0.0855099956,12.847464 -0.0855099956,13.4019888 0.256529987,13.7437512 C0.427549978,13.9144864 0.651685393,14 0.875528965,14 C1.09937254,14 1.32350795,13.9144864 1.49452794,13.7434593 L7.00014592,8.23790365 L12.5054721,13.7434593 C12.676492,13.9144864 12.9006275,14 13.124471,14 C13.3483146,14 13.57245,13.9144864 13.74347,13.7434593 C14.08551,13.4016969 14.08551,12.8471721 13.74347,12.5054097 L8.23814388,7.00014593 Z" id="Path"></path>
            </g>
        </g>
    </g>
</svg>